<svg xmlns="http://www.w3.org/2000/svg" width="1600" height="900" viewBox="0 0 1600 900">
  <defs>
    <linearGradient id="bg" x1="0" x2="1" y1="0" y2="1">
      <stop offset="0" stop-color="#0b0b0b"/>
      <stop offset="1" stop-color="#1a1a1a"/>
    </linearGradient>
    <linearGradient id="gold" x1="0" x2="1" y1="0" y2="1">
      <stop offset="0" stop-color="#e0b94f"/>
      <stop offset="1" stop-color="#c7a54f"/>
    </linearGradient>
    <filter id="blur" x="-20%" y="-20%" width="140%" height="140%">
      <feGaussianBlur stdDeviation="90"/>
    </filter>
  </defs>
  <rect width="1600" height="900" fill="url(#bg)"/>
  <circle cx="1350" cy="-50" r="420" fill="url(#gold)" opacity="0.35" filter="url(#blur)"/>
  <circle cx="-40" cy="780" r="380" fill="url(#gold)" opacity="0.25" filter="url(#blur)"/>
  <g fill="#fff" opacity="0.12">
    <rect x="240" y="600" width="1120" height="16" rx="8"/>
    <rect x="260" y="560" width="1080" height="14" rx="7"/>
    <rect x="420" y="520" width="760" height="12" rx="6"/>
  </g>
  <g transform="translate(200,230)" fill="#e6e6e6" opacity="0.25">
    <rect x="0" y="0" width="120" height="8" rx="4"/>
    <rect x="140" y="0" width="120" height="8" rx="4"/>
    <rect x="280" y="0" width="120" height="8" rx="4"/>
  </g>
  <text x="10%" y="72%" fill="#ffffff" font-family="'Playfair Display', Georgia, serif" font-size="84" font-weight="700">Fine Dining</text>
  <rect x="10%" y="74%" width="220" height="4" fill="#c7a54f"/>
</svg>
